<svg width="43px" height="10px" viewBox="659 21 43 10" version="1.1" xmlns="http://www.w3.org/2000/svg" xmlns:xlink="http://www.w3.org/1999/xlink">
    <!-- Generator: Sketch 41.2 (35397) - http://www.bohemiancoding.com/sketch -->
    <desc>Created with Sketch.</desc>
    <defs></defs>
    <path d="M669,26 C669,28.761 666.761,31 664,31 C661.239,31 659,28.761 659,26 C659,23.238 661.239,21 664,21 C666.761,21 669,23.238 669,26 Z M680,21 C682.761,21 685,23.238 685,26 C685,28.761 682.761,31 680,31 C677.239,31 675,28.761 675,26 C675,23.238 677.239,21 680,21 Z M697,21 C699.761,21 702,23.238 702,26 C702,28.761 699.761,31 697,31 C694.239,31 692,28.761 692,26 C692,23.238 694.239,21 697,21 Z" id="Fill-" stroke="none" fill="#FFFFFF" fill-rule="evenodd"></path>
</svg>